# xmcd CD database file
#
# Track frame offsets:
#	150
#	18092
#	32985
#	50357
#	68095
#	82742
#	101940
#	122717
#	140160
#	152355
#
# Disc length: 2281 seconds
#
# Revision: 0
# Processed by: cddbd v1.5.2PL0 Copyright (c) Steve Scherf et al.
# Submitted via: CDex 1.79
#
DISCID=7b08e70a
DTITLE=Matters Of The Heart - Backed In A Corner
DYEAR=1996
DGENRE=Country
TTITLE0=Love 101
TTITLE1=Thanks For Nothing
TTITLE2=Midnight Ride
TTITLE3=A Man Like You
TTITLE4=In Matters Of The Heart
TTITLE5=Backed In A Corner
TTITLE6=Without You
TTITLE7=Bright Lights
TTITLE8=Sit and Listen
TTITLE9=Hey Baby
EXTD=YEAR: 1996
EXTT0=
EXTT1=
EXTT2=
EXTT3=
EXTT4=
EXTT5=
EXTT6=
EXTT7=
EXTT8=
EXTT9=
PLAYORDER=
